# AST/ASF file generated using VICON BodyLanguage
# -----------------------------------------------
:version 1.10
:name VICON
:units
  mass 1.0
  length 0.45
  angle deg
:documentation
   .ast/.asf automatically generated from VICON data using
   VICON BodyBuilder and BodyLanguage model FoxedUp or BRILLIANT.MOD
:root
   order TX TY TZ RX RY RZ
   axis XYZ
   position 0 0 0  
   orientation 0 0 0 
:bonedata
  begin
     id 1 
     name lhipjoint
     direction 0.584852 -0.759097 0.285867 
     length 2.43633 
     axis 0 0 0  XYZ
  end
  begin
     id 2 
     name lfemur
     direction 0.34202 -0.939693 0  
     length 7.14704  
     axis 0 0 20  XYZ
    dof rx ry rz
    limits (-160.0 20.0)
           (-70.0 70.0)
           (-60.0 70.0)
  end
  begin
     id 3 
     name ltibia
     direction 0.342022 -0.939692 0   
     length 7.68483   
     axis 0 0 20   XYZ
    dof rx
    limits (-10.0 170.0)
  end
  begin
     id 4 
     name lfoot
     direction 0.0999605 -0.274639 0.956337   
     length 2.40452   
     axis -90 7.62852e-016 20   XYZ
    dof rx rz
    limits (-45.0 90.0)
           (-70.0 20.0)
  end
  begin
     id 5 
     name ltoes
     direction 1.53468e-011 -4.21881e-011 1   
     length 1.19837   
     axis -90 7.62852e-016 20   XYZ
    dof rx
    limits (-90.0 20.0)
  end
  begin
     id 6 
     name rhipjoint
     direction -0.569886 -0.769002 0.289597   
     length 2.40495  
     axis 0 0 0  XYZ 
  end
  begin
     id 7 
     name rfemur
     direction -0.34202 -0.939693 0   
     length 7.45086   
     axis 0 0 -20   XYZ
    dof rx ry rz
    limits (-160.0 20.0)
           (-70.0 70.0)
           (-70.0 60.0)
  end
  begin
     id 8 
     name rtibia
     direction -0.34202 -0.939693 0   
     length 7.76831   
     axis 0 0 -20   XYZ
    dof rx
    limits (-10.0 170.0)
 end
 begin
     id 9 
     name rfoot
     direction -0.0798572 -0.219406 0.97236   
     length 2.35911  
     axis -90 -7.62852e-016 -20   XYZ
    dof rx rz
    limits (-45.0 90.0)
           (-20.0 70.0)
  end
  begin
     id 10 
     name rtoes
     direction -1.53469e-011 -4.21728e-011 1   
     length 1.18261   
     axis -90 -7.62852e-016 -20   XYZ
    dof rx
    limits (-90.0 20.0)
  end
  begin
     id 11 
     name lowerback
     direction 0.0242088 0.999437 0.0232389   
     length 2.1561   
     axis 0 0 0   XYZ
    dof rx ry rz
    limits (-20.0 45.0)
           (-30.0 30.0)
           (-30.0 30.0)
  end
  begin
     id 12 
     name upperback
     direction -0.0356893 0.999013 -0.0264323   
     length 2.14431   
     axis 0 0 0   XYZ
    dof rx ry rz
    limits (-20.0 45.0)
           (-30.0 30.0)
           (-30.0 30.0)
  end
  begin
     id 13 
     name thorax
     direction -0.0472163 0.998194 -0.0371284   
     length 2.16169   
     axis 0 0 0   XYZ
    dof rx ry rz
    limits (-20.0 45.0)
           (-30.0 30.0)
           (-30.0 30.0)
  end
  begin
     id 14 
     name lowerneck
     direction 0.00863244 0.999921 0.00911972   
     length 1.58651   
     axis 0 0 0   XYZ
    dof rx ry rz
    limits (-20.0 45.0)
           (-30.0 30.0)
           (-30.0 30.0)
  end
  begin
     id 15 
     name upperneck
     direction 0.149523 0.979068 -0.138086   
     length 1.57486   
     axis 0 0 0   XYZ
    dof rx ry rz
    limits (-20.0 45.0)
           (-30.0 30.0)
           (-30.0 30.0)
  end
  begin
     id 16
     name head
     direction 0.0445219 0.997708 -0.0509576  
     length 1.6019  
     axis 0 0 0   XYZ
    dof rx ry rz
    limits (-20.0 45.0)
           (-30.0 30.0)
           (-30.0 30.0)
  end
  begin
     id 17 
     name lclavicle
     direction 0.911271 0.381667 -0.154644  
     length 3.80848  
     axis 0 0 0   XYZ
    dof ry rz
    limits (-20.0 10.0)
           (0.0 20.0)
  end
  begin
     id 18 
     name lhumerus
     direction 1 -4.49003e-011 2.1308e-027   
     length 5.19069   
     axis 180 -30 -90   XYZ
    dof rx ry rz
    limits (-60.0 90.0)
           (-90.0 90.0)
           (-90.0 90.0)
  end
  begin
     id 19
     name lradius
     direction 1 -4.48914e-011 4.01554e-027   
     length 3.30016   
     axis 180 -30 -90   XYZ
    dof rx
    limits (-10.0 170.0)
  end
  begin
     id 20
     name lwrist
     direction 1 -4.49003e-011 1.1934e-026   
     length 1.65008   
     axis -8.46377e-015 90 90   XYZ
    dof ry
    limits (-180.0 0.0)
 end
  begin
     id 21 
     name lhand
     direction 1 -4.49034e-011 2.38659e-026   
     length 0.707698   
     axis -1.52313e-014 90 90   XYZ
    dof rx rz
    limits (-90.0 90.0)
           (-45.0 45.0)
  end
  begin
     id 22 
     name lfingers
     direction 1 -4.48691e-011 4.77775e-026   
     length 0.570564   
     axis -3.04623e-014 90 90   XYZ
    dof rx
    limits (0.0 90.0)
  end
  begin
     id 23
     name lthumb
     direction 0.707107 -6.34832e-011 0.707107   
     length 0.819219   
     axis -90 45 -1.62303e-014   XYZ
    dof rx rz
    limits (-45.0 45.0)
           (-45.0 45.0)
  end
  begin
     id 24 
     name rclavicle
     direction -0.815579 0.573708 -0.0754329   
     length 3.54371  
     axis 0 0 0   XYZ 
    dof ry rz
    limits (-10.0 20.0)
           (-20.0 0.0)
  end
  begin
     id 25 
     name rhumerus
     direction -1 -4.48956e-011 3.05351e-028  
     length 5.23924   
     axis 180 30 90   XYZ
    dof rx ry rz
    limits (-90.0 60.0)
           (-90.0 90.0)
           (-90.0 90.0)
  end
  begin
     id 26 
     name rradius
     direction -1 -4.49013e-011 3.53849e-027   
     length 3.32953   
     axis 180 30 90   XYZ
    dof rx
    limits (-10.0 170.0)
  end
  begin
     id 27 
     name rwrist
     direction -1 -4.48901e-011 1.19374e-026   
     length 1.66477   
     axis -8.46377e-015 -90 -90   XYZ
    dof ry
    limits (-180.0 0.0)
  end
  begin
     id 28
     name rhand
     direction -1 -4.48877e-011 2.38764e-026   
     length 0.607414   
     axis -1.52313e-014 -90 -90   XYZ
    dof rx rz
    limits (-90.0 90.0)
           (-45.0 45.0)
  end
  begin
     id 29
     name rfingers
     direction -1 -4.48882e-011 4.77521e-026   
     length 0.489712   
     axis -3.04623e-014 -90 -90   XYZ
    dof rx
    limits (0.0 90.0)
  end
  begin
     id 30
     name rthumb
     direction -0.707107 -6.34974e-011 0.707107   
     length 0.703132   
     axis -90 -45 1.62303e-014   XYZ
    dof rx rz
    limits (-45.0 45.0)
           (-45.0 45.0)
  end
:hierarchy
  begin
    root lhipjoint rhipjoint lowerback
    lhipjoint lfemur
    lfemur ltibia
    ltibia lfoot
    lfoot ltoes
    rhipjoint rfemur
    rfemur rtibia
    rtibia rfoot
    rfoot rtoes
    lowerback upperback
    upperback thorax
    thorax lowerneck lclavicle rclavicle
    lowerneck upperneck
    upperneck head
    lclavicle lhumerus
    lhumerus lradius
    lradius lwrist
    lwrist lhand lthumb
    lhand lfingers
    rclavicle rhumerus
    rhumerus rradius
    rradius rwrist
    rwrist rhand rthumb
    rhand rfingers
  end

#!OML:ASF E:\VariousWalksJay\Project 1\Capture day 1\Session 1\Actor2.ASF
:FULLY-SPECIFIED
:DEGREES
174
root 7.53493 16.9633 9.65647 18.5202 -46.4751 -17.3791
lowerback -4.87357 -0.361233 11.4667
upperback 3.89537 -1.52116 1.35985
thorax 6.65934 -0.261819 -5.14446
lowerneck -10.1393 -0.480949 -0.816112
upperneck 6.69221 -1.40859 9.09282
head 3.73409 -0.277368 2.82802
rclavicle -1.12313e-014 1.59028e-015
rhumerus -78.3336 24.5371 -135.634
rradius 73.2277
rwrist 9.71116
rhand 0.63209 5.392
rfingers 7.12502
rthumb 26.1957 -22.8204
lclavicle -1.12313e-014 1.59028e-015
lhumerus -85.5404 -31.9784 143.168
lradius 72.1826
lwrist 10.1501
lhand 9.33783 -10.789
lfingers 7.12502
lthumb 34.498 15.8828
rfemur -18.1145 -3.75292 34.6839
rtibia 38.1051
rfoot -25.029 -10.8346
rtoes 2.60877
lfemur -20.8017 6.18533 -7.90392
ltibia 43.1043
lfoot -26.6234 6.30327
ltoes -7.2895
175
root 7.53859 16.9628 9.64859 18.4648 -46.4404 -17.3244
lowerback -4.7776 -0.378857 11.3909
upperback 3.91535 -1.52596 1.34907
thorax 6.62456 -0.26869 -5.11236
lowerneck -10.0933 -0.477061 -0.789566
upperneck 6.74612 -1.40829 9.06969
head 3.74243 -0.277186 2.81676
rclavicle 4.40308e-014 -1.27222e-014
rhumerus -78.059 24.596 -135.492
rradius 73.042
rwrist 10.4433
rhand 0.29643 5.73904
rfingers 7.12502
rthumb 25.8743 -22.5206
lclavicle 4.40308e-014 -1.27222e-014
lhumerus -85.4689 -32.2694 143.196
lradius 72.084
lwrist 9.59661
lhand 9.14885 -11.0032
lfingers 7.12502
lthumb 34.3186 15.7092
rfemur -18.1605 -3.68046 34.6684
rtibia 38.1654
rfoot -25.0563 -10.9039
rtoes 2.6727
lfemur -20.835 6.18054 -7.92625
ltibia 43.1005
lfoot -26.5926 6.24877
ltoes -7.20393
176
root 7.54277 16.9623 9.64224 18.4218 -46.4268 -17.2715
lowerback -4.69694 -0.385427 11.3316
upperback 3.93089 -1.51893 1.33391
thorax 6.59571 -0.268638 -5.09327
lowerneck -10.0571 -0.472722 -0.76394
upperneck 6.81847 -1.4081 9.03951
head 3.7579 -0.276614 2.80361
rclavicle 1.22253e-013 1.35174e-014
rhumerus -77.7995 24.6316 -135.349
rradius 72.8675
rwrist 11.1239
rhand 0.00330703 6.02596
rfingers 7.12502
rthumb 25.5935 -22.2743
lclavicle 1.22253e-013 1.35174e-014
lhumerus -85.4105 -32.538 143.227
lradius 71.993
lwrist 9.07318
lhand 8.99277 -11.2051
lfingers 7.12502
lthumb 34.1704 15.5407
rfemur -18.2137 -3.61123 34.6425
rtibia 38.2261
rfoot -25.0791 -10.9484
rtoes 2.73527
lfemur -20.8697 6.17247 -7.96006
ltibia 43.0991
lfoot -26.5733 6.21325
ltoes -7.10388
177
root 7.54664 16.9616 9.63668 18.3889 -46.423 -17.2304
lowerback -4.62516 -0.385927 11.2837
upperback 3.94613 -1.50613 1.31996
thorax 6.57269 -0.264945 -5.07887
lowerneck -10.0303 -0.467397 -0.742075
upperneck 6.9001 -1.40686 9.00886
head 3.77771 -0.275124 2.79109
rclavicle 5.14852e-014 -3.65764e-014
rhumerus -77.5608 24.648 -135.208
rradius 72.7059
rwrist 11.7382
rhand -0.268458 6.26435
rfingers 7.12502
rthumb 25.3332 -22.0731
lclavicle 5.14852e-014 -3.65764e-014
lhumerus -85.3536 -32.7736 143.244
lradius 71.9095
lwrist 8.59133
lhand 8.88506 -11.3776
lfingers 7.12502
lthumb 34.0681 15.391
rfemur -18.2656 -3.53851 34.62
rtibia 38.2898
rfoot -25.1013 -10.988
rtoes 2.77969
lfemur -20.898 6.16418 -7.98951
ltibia 43.0976
lfoot -26.5613 6.18495
ltoes -6.99855
178
root 7.55017 16.9607 9.63183 18.3556 -46.4271 -17.1916
lowerback -4.55718 -0.382336 11.2388
upperback 3.96219 -1.48886 1.3068
thorax 6.55352 -0.258698 -5.06497
lowerneck -10.0082 -0.462782 -0.72324
upperneck 6.98083 -1.40592 8.9765
head 3.79805 -0.273856 2.77853
rclavicle 6.14245e-014 -4.92986e-014
rhumerus -77.3488 24.6465 -135.071
rradius 72.5631
rwrist 12.2659
rhand -0.529893 6.40495
rfingers 7.12502
rthumb 25.0827 -21.9678
lclavicle 6.14245e-014 -4.92986e-014
lhumerus -85.2986 -32.9663 143.246
lradius 71.8284
lwrist 8.12188
lhand 8.78055 -11.5347
lfingers 7.12502
lthumb 33.9688 15.2559
rfemur -18.3128 -3.46398 34.5948
rtibia 38.3562
rfoot -25.1257 -11.0236
rtoes 2.82383
lfemur -20.9173 6.15909 -8.01986
ltibia 43.0957
lfoot -26.555 6.15503
ltoes -6.88484
